<?xml version="1.0" encoding="UTF-8" standalone="no"?>
<!-- Created with Inkscape (http://www.inkscape.org/) -->

<svg
   xmlns:dc="http://purl.org/dc/elements/1.1/"
   xmlns:cc="http://creativecommons.org/ns#"
   xmlns:rdf="http://www.w3.org/1999/02/22-rdf-syntax-ns#"
   xmlns:svg="http://www.w3.org/2000/svg"
   xmlns="http://www.w3.org/2000/svg"
   xmlns:sodipodi="http://sodipodi.sourceforge.net/DTD/sodipodi-0.dtd"
   xmlns:inkscape="http://www.inkscape.org/namespaces/inkscape"
   width="196"
   height="36"
   id="svg3217"
   version="1.1"
   inkscape:version="0.92.1 r15371"
   sodipodi:docname="logo.svg">
  <defs
     id="defs3219" />
  <sodipodi:namedview
     id="base"
     pagecolor="#ffffff"
     bordercolor="#666666"
     borderopacity="1.0"
     inkscape:pageopacity="0.0"
     inkscape:pageshadow="2"
     inkscape:zoom="5.6"
     inkscape:cx="135.83384"
     inkscape:cy="-3.3497947"
     inkscape:document-units="px"
     inkscape:current-layer="layer1"
     showgrid="false"
     inkscape:window-width="1920"
     inkscape:window-height="1026"
     inkscape:window-x="0"
     inkscape:window-y="25"
     inkscape:window-maximized="1"
     showguides="true"
     inkscape:guide-bbox="true">
    <sodipodi:guide
       position="88.571429,77.142858"
       orientation="0,1"
       id="guide4549"
       inkscape:locked="false" />
    <sodipodi:guide
       position="86.607143,7.1428572"
       orientation="0,1"
       id="guide4946"
       inkscape:locked="false" />
  </sodipodi:namedview>
  <metadata
     id="metadata3222">
    <rdf:RDF>
      <cc:Work
         rdf:about="">
        <dc:format>image/svg+xml</dc:format>
        <dc:type
           rdf:resource="http://purl.org/dc/dcmitype/StillImage" />
        <dc:title />
      </cc:Work>
    </rdf:RDF>
  </metadata>
  <g
     inkscape:label="Layer 1"
     inkscape:groupmode="layer"
     id="layer1"
     transform="translate(0,-1086.5196)">
    <g
       id="g4646">
      <path
         inkscape:connector-curvature="0"
         id="path2990-7"
         style="font-style:normal;font-variant:normal;font-weight:normal;font-stretch:normal;font-size:medium;line-height:125%;font-family:'Varela Round';-inkscape-font-specification:'Varela Round';letter-spacing:-0.5px;word-spacing:0px;fill:#ffffff;fill-opacity:1;stroke:none;stroke-width:2.23488832"
         d="m 53.685838,1112.2245 c 2.646038,0 3.969161,-0.8463 3.969161,-2.5388 0,-0.5245 -0.26232,-0.9178 -0.78675,-1.1801 -0.524431,-0.286 -1.191964,-0.5363 -2.00239,-0.7509 -0.786751,-0.2145 -1.644948,-0.4291 -2.574591,-0.6436 -0.929644,-0.2384 -1.799993,-0.5603 -2.61042,-0.9655 -0.786541,-0.4053 -1.442341,-0.9297 -1.966562,-1.5734 -0.52464,-0.6675 -0.78675,-1.478 -0.78675,-2.4315 0,-0.9536 0.142474,-1.776 0.429098,-2.4674 0.285996,-0.6912 0.715095,-1.2872 1.287296,-1.7879 1.26341,-1.0727 3.015423,-1.6091 5.256457,-1.6091 1.787841,0 3.516178,0.298 5.185011,0.894 0.333557,0.1192 0.583934,0.3099 0.750922,0.5721 0.190664,0.2622 0.285996,0.5602 0.285996,0.894 0,0.3099 -0.142474,0.6079 -0.429099,0.8939 -0.26232,0.2861 -0.52464,0.4291 -0.78675,0.4291 -0.26232,0 -0.584144,-0.06 -0.965472,-0.1787 -1.144193,-0.3576 -2.39566,-0.5364 -3.754612,-0.5364 -1.358742,0 -2.395661,0.2384 -3.110964,0.7152 -0.691419,0.4768 -1.036919,1.0489 -1.036919,1.7164 0,0.6675 0.262111,1.1681 0.786751,1.5018 0.548106,0.3099 1.215639,0.5722 2.00239,0.7867 0.78675,0.2145 1.644947,0.4291 2.574591,0.6436 0.953319,0.2146 1.823669,0.5126 2.610419,0.894 1.859288,0.9536 2.789141,2.4316 2.789141,4.434 0,1.5257 -0.572201,2.7653 -1.716394,3.7189 -1.239735,1.0489 -2.968072,1.5733 -5.185011,1.5733 -2.407813,0 -4.576981,-0.5363 -6.507925,-1.6091 -0.405422,-0.286 -0.608029,-0.6436 -0.608029,-1.0727 0,-0.4291 0.131998,-0.7867 0.39348,-1.0728 0.262111,-0.3099 0.548107,-0.4648 0.858197,-0.4648 0.309672,0 0.679267,0.095 1.108365,0.286 1.382628,0.6198 2.896415,0.9297 4.541363,0.9297" />
      <path
         inkscape:connector-curvature="0"
         id="path2992-5"
         style="font-style:normal;font-variant:normal;font-weight:normal;font-stretch:normal;font-size:medium;line-height:125%;font-family:'Varela Round';-inkscape-font-specification:'Varela Round';letter-spacing:-0.5px;word-spacing:0px;fill:#ffffff;fill-opacity:1;stroke:none;stroke-width:2.23488832"
         d="m 66.173276,1106.8965 c 0.190664,1.6211 0.798483,2.9083 1.823669,3.8619 1.024975,0.9535 2.455164,1.4303 4.290985,1.4303 1.835402,0 3.373075,-0.3099 4.612809,-0.9297 0.429099,-0.2145 0.798484,-0.3218 1.108575,-0.3218 0.309671,0 0.607819,0.1311 0.893815,0.3933 0.286206,0.2623 0.429099,0.5602 0.429099,0.894 0,0.6198 -0.26232,1.0727 -0.786541,1.3588 -0.500755,0.2622 -0.953739,0.4887 -1.358952,0.6794 -0.405423,0.1907 -0.846254,0.3576 -1.322914,0.5006 -1.072746,0.3099 -2.312481,0.4649 -3.718994,0.4649 -2.932033,0 -5.208896,-0.8225 -6.829748,-2.4673 -1.621272,-1.6449 -2.431489,-3.9811 -2.431489,-7.0087 0,-2.6222 0.679266,-4.8035 2.038218,-6.5437 1.525521,-1.9548 3.694899,-2.9322 6.507925,-2.9322 2.669713,0 4.779588,0.9059 6.329203,2.7176 1.454074,1.6926 2.181321,3.7904 2.181321,6.2935 0,0.4529 -0.155045,0.8343 -0.464927,1.1442 -0.285995,0.31 -0.679475,0.4649 -1.180021,0.4649 H 66.173276 m 5.256457,-7.8668 c -2.121817,0 -3.671223,0.9416 -4.648638,2.8249 -0.357442,0.6675 -0.560258,1.4661 -0.607819,2.3958 h 10.548742 c -0.09638,-1.6926 -0.715304,-3.0275 -1.859497,-4.0049 -0.953738,-0.8105 -2.097931,-1.2158 -3.432788,-1.2158" />
      <path
         inkscape:connector-curvature="0"
         id="path2994-3"
         style="font-style:normal;font-variant:normal;font-weight:normal;font-stretch:normal;font-size:medium;line-height:125%;font-family:'Varela Round';-inkscape-font-specification:'Varela Round';letter-spacing:-0.5px;word-spacing:0px;fill:#ffffff;fill-opacity:1;stroke:none;stroke-width:2.23488832"
         d="m 83.518243,1090.2332 c 0,-0.4768 0.155046,-0.8701 0.464927,-1.18 0.309671,-0.3099 0.691209,-0.4649 1.144193,-0.4649 0.476659,0 0.86993,0.1548 1.180021,0.4649 0.309671,0.3099 0.464926,0.7032 0.464926,1.18 v 23.2071 c 0,0.4529 -0.155045,0.8343 -0.464926,1.1442 -0.310091,0.3099 -0.703362,0.4649 -1.180021,0.4649 -0.452984,0 -0.834522,-0.1549 -1.144193,-0.4649 -0.310091,-0.3099 -0.464927,-0.6913 -0.464927,-1.1442 v -23.2071" />
      <path
         inkscape:connector-curvature="0"
         id="path2996-5"
         style="font-style:normal;font-variant:normal;font-weight:normal;font-stretch:normal;font-size:medium;line-height:125%;font-family:'Varela Round';-inkscape-font-specification:'Varela Round';letter-spacing:-0.5px;word-spacing:0px;fill:#ffffff;fill-opacity:1;stroke:none;stroke-width:2.23488832"
         d="m 93.830017,1106.8965 c 0.190664,1.6211 0.798484,2.9083 1.823669,3.8619 1.024976,0.9535 2.455165,1.4303 4.290986,1.4303 1.835398,0 3.373078,-0.3099 4.612808,-0.9297 0.4291,-0.2145 0.79848,-0.3218 1.10858,-0.3218 0.30967,0 0.60781,0.1311 0.89381,0.3933 0.28621,0.2623 0.4291,0.5602 0.4291,0.894 0,0.6198 -0.26232,1.0727 -0.78654,1.3588 -0.50076,0.2622 -0.95374,0.4887 -1.35895,0.6794 -0.40543,0.1907 -0.84626,0.3576 -1.32292,0.5006 -1.07274,0.3099 -2.31248,0.4649 -3.718991,0.4649 -2.932034,0 -5.208896,-0.8225 -6.829749,-2.4673 -1.621271,-1.6449 -2.431488,-3.9811 -2.431488,-7.0087 0,-2.6222 0.679266,-4.8035 2.038218,-6.5437 1.525521,-1.9548 3.694899,-2.9322 6.507924,-2.9322 2.669716,0 4.779586,0.9059 6.329206,2.7176 1.45407,1.6926 2.18132,3.7904 2.18132,6.2935 0,0.4529 -0.15505,0.8343 -0.46493,1.1442 -0.28599,0.31 -0.67947,0.4649 -1.18002,0.4649 H 93.830017 m 5.256457,-7.8668 c -2.121816,0 -3.671222,0.9416 -4.648637,2.8249 -0.357442,0.6675 -0.560258,1.4661 -0.60782,2.3958 h 10.548743 c -0.0964,-1.6926 -0.7153,-3.0275 -1.8595,-4.0049 -0.95374,-0.8105 -2.09793,-1.2158 -3.432786,-1.2158" />
      <path
         inkscape:connector-curvature="0"
         id="path2998-6"
         style="font-style:normal;font-variant:normal;font-weight:normal;font-stretch:normal;font-size:medium;line-height:125%;font-family:'Varela Round';-inkscape-font-specification:'Varela Round';letter-spacing:-0.5px;word-spacing:0px;fill:#ffffff;fill-opacity:1;stroke:none;stroke-width:2.23488832"
         d="m 119.54241,1112.1887 c 1.33485,0 2.61042,-0.3337 3.82606,-1.0012 0.42909,-0.2384 0.81042,-0.3576 1.1444,-0.3576 0.33355,0 0.63149,0.1548 0.89381,0.4649 0.26211,0.3099 0.39348,0.6794 0.39348,1.1085 0,0.4291 -0.27426,0.8224 -0.82258,1.18 -1.69271,1.0966 -3.59977,1.6449 -5.72117,1.6449 -2.64625,0 -4.87534,-0.8344 -6.68685,-2.5031 -1.90727,-1.7641 -2.86059,-4.0884 -2.86059,-6.9729 0,-2.8844 0.95332,-5.2087 2.86059,-6.9728 1.81151,-1.6687 4.0406,-2.5031 6.68685,-2.5031 1.43019,0 2.59827,0.1907 3.50424,0.5721 0.92964,0.3577 1.66862,0.7152 2.21693,1.0728 0.54832,0.3576 0.82258,0.7509 0.82258,1.18 0,0.4291 -0.13199,0.7986 -0.39348,1.1085 -0.26232,0.3099 -0.52443,0.4649 -0.78654,0.4649 -0.40542,0 -0.82258,-0.1192 -1.25167,-0.3576 -1.21564,-0.6675 -2.49121,-1.0012 -3.82606,-1.0012 -2.09794,0 -3.71879,0.5959 -4.86319,1.7879 -1.14419,1.1681 -1.71639,2.7176 -1.71639,4.6485 0,1.931 0.5722,3.4924 1.71639,4.6844 1.1444,1.1681 2.76525,1.7521 4.86319,1.7521" />
      <path
         inkscape:connector-curvature="0"
         id="path3000-2"
         style="font-style:normal;font-variant:normal;font-weight:normal;font-stretch:normal;font-size:medium;line-height:125%;font-family:'Varela Round';-inkscape-font-specification:'Varela Round';letter-spacing:-0.5px;word-spacing:0px;fill:#ffffff;fill-opacity:1;stroke:none;stroke-width:2.23488832"
         d="m 135.5588,1112.3675 c 0.64365,0 1.09642,-0.048 1.35874,-0.1431 0.286,-0.1192 0.58394,-0.1787 0.89403,-0.1787 0.33356,0 0.6315,0.119 0.89382,0.3576 0.26211,0.2384 0.39348,0.5959 0.39348,1.0727 0,0.4768 -0.23865,0.8225 -0.71531,1.037 -1.02518,0.4768 -1.90727,0.7152 -2.64604,0.7152 -0.71509,0 -1.37089,-0.036 -1.96677,-0.1073 -0.59608,-0.071 -1.16808,-0.2742 -1.71639,-0.6079 -1.31118,-0.7628 -1.96656,-2.0978 -1.96656,-4.0049 v -11.0851 h -2.53898 c -0.45298,10e-5 -0.67926,-0.2264 -0.67926,-0.6794 0,-0.2145 0.10685,-0.4171 0.32182,-0.6079 l 4.86298,-4.7558 c 0.21455,-0.2145 0.41715,-0.3218 0.60803,-0.3218 0.19066,0 0.3455,0.071 0.46471,0.2145 0.14248,0.1431 0.21455,0.31 0.21455,0.5006 v 2.8607 h 4.04082 c 0.405,0 0.73877,0.1312 1.00109,0.3933 0.26211,0.2623 0.39348,0.596 0.39348,1.0013 0,0.4052 -0.132,0.739 -0.39348,1.0012 -0.26232,0.2622 -0.59609,0.3934 -1.00109,0.3933 h -4.04082 v 10.799 c 0,0.9059 0.27406,1.5257 0.82258,1.8594 0.30967,0.1907 0.7746,0.2861 1.39457,0.2861" />
      <path
         d="m 19.468219,1112.5104 c -1.764165,1.8118 -3.802383,2.7177 -6.114655,2.7177 -2.288595,0 -4.267309,-0.8105 -5.9359325,-2.4316 -1.8117261,-1.7879 -2.7174843,-4.136 -2.7174843,-7.0444 0,-2.8606 0.9057582,-5.1968 2.7174843,-7.0086 1.6449476,-1.6448 3.6234525,-2.4673 5.9359325,-2.4673 2.312272,0 4.35049,0.9059 6.114655,2.7176 v -8.7607 c 0,-0.4768 0.155045,-0.8701 0.464926,-1.18 0.309672,-0.3099 0.691209,-0.4649 1.144193,-0.4649 0.47666,0 0.87014,0.1548 1.180021,0.4649 0.309672,0.3099 0.464927,0.7032 0.464927,1.18 v 23.2071 c 0,0.4529 -0.155046,0.8343 -0.464927,1.1442 -0.309881,0.3099 -0.703361,0.4649 -1.180021,0.4649 -0.452984,0 -0.834521,-0.1548 -1.144193,-0.4649 -0.310091,-0.3099 -0.464926,-0.6913 -0.464926,-1.1442 v -0.9298 m 0,-10.5129 c -1.621272,-1.7879 -3.504235,-2.6818 -5.649728,-2.6818 -2.717694,0 -4.5176868,1.2158 -5.3995597,3.6473 -0.3098812,0.8105 -0.4649266,1.7403 -0.4649266,2.7891 0,2.0502 0.560049,3.6593 1.6807756,4.8274 1.0247657,1.0728 2.4193367,1.6091 4.1837107,1.6091 2.145493,0 4.028456,-0.8939 5.649728,-2.6819 v -7.5092"
         style="font-style:normal;font-variant:normal;font-weight:normal;font-stretch:normal;font-size:medium;line-height:125%;font-family:'Varela Round';-inkscape-font-specification:'Varela Round';letter-spacing:-0.5px;word-spacing:0px;fill:#2ecc71;fill-opacity:1;stroke:none;stroke-width:2.23488832"
         id="path3003-2"
         inkscape:connector-curvature="0" />
      <path
         id="path3122-8-7-2-0-9-72-7"
         d="m 35.319932,1096.2801 c -5.065165,0 -9.149353,4.2675 -9.149353,9.4983 0,5.2308 4.084188,9.4284 9.149353,9.4284 5.064955,0 9.218913,-4.1976 9.218913,-9.4284 0,-1.7585 -0.518563,-3.4078 -1.327104,-4.819 l -8.310851,10.5459 -0.628772,0.7682 c -0.359537,0.4337 -1.039223,0.4337 -1.396875,0 l -0.628353,-0.9079 -3.631623,-4.6793 c -0.3103,-0.3825 -0.263368,-0.9511 0.140379,-1.2571 l 1.536416,-1.1175 c 0.410032,-0.2805 0.976576,-0.1988 1.257124,0.2094 l 2.234958,3.2126 8.17131,-8.4507 c -1.671556,-1.8209 -4.01358,-3.0031 -6.634894,-3.0031 z"
         style="fill:#2ecc71;fill-opacity:1;fill-rule:nonzero;stroke:none;stroke-width:2.23488832"
         inkscape:connector-curvature="0" />
      <g
         id="text4547"
         style="font-style:normal;font-weight:normal;font-size:26.24277115px;line-height:125%;font-family:sans-serif;letter-spacing:0px;word-spacing:0px;fill:#f44336;fill-opacity:1;stroke:none;stroke-width:0.65606928px;stroke-linecap:butt;stroke-linejoin:miter;stroke-opacity:1"
         aria-label="api">
        <path
           id="path4625"
           style="font-style:normal;font-variant:normal;font-weight:normal;font-stretch:normal;font-family:Monaco;-inkscape-font-specification:Monaco;letter-spacing:-0.77999949px;fill:#f44336;fill-opacity:1;stroke-width:0.65606928px"
           d="m 158.68535,1111.776 q -1.08917,1.794 -2.62684,2.7038 -1.52484,0.9097 -2.80623,0.9097 -1.79394,0 -3.22909,-1.5504 -1.42234,-1.5505 -1.42234,-4.7027 0,-2.4859 0.94823,-4.4336 0.94822,-1.9605 2.53714,-3.0882 1.58892,-1.1404 3.93385,-1.1404 0.67914,0 2.05022,0.141 0.20502,0.026 0.61506,0.064 h 2.39619 v 10.1102 q 0,2.5884 0.53819,4.2029 h -2.48589 q -0.28191,-1.1789 -0.44849,-3.2163 z m 0,-2.8318 v -6.1379 q -1.26857,-0.3331 -2.35775,-0.3331 -2.20398,0 -3.67757,1.7042 -1.46078,1.7043 -1.46078,4.6386 0,2.1271 0.79446,3.2163 0.80727,1.0764 1.83238,1.0764 1.1148,0 2.46026,-1.1276 1.34545,-1.1277 2.409,-3.0369 z" />
        <path
           id="path4627"
           style="font-style:normal;font-variant:normal;font-weight:normal;font-stretch:normal;font-family:Monaco;-inkscape-font-specification:Monaco;letter-spacing:-0.77999949px;fill:#f44336;fill-opacity:1;stroke-width:0.65606928px"
           d="m 166.43938,1103.8955 q 1.10199,-1.7939 2.62684,-2.7037 1.52485,-0.9098 2.80623,-0.9098 1.79394,0 3.2291,1.5505 1.43515,1.5505 1.43515,4.7027 0,2.4859 -0.96104,4.4464 -0.94823,1.9477 -2.53715,3.0881 -1.58891,1.1276 -3.93385,1.1276 -0.66632,0 -2.05021,-0.1409 -0.20503,-0.026 -0.61507,-0.064 v 5.5612 H 164.056 v -19.8743 h 2.38338 z m 0,2.8319 v 6.1378 q 1.2942,0.3332 2.38338,0.3332 2.16554,0 3.63913,-1.6915 1.48641,-1.7042 1.48641,-4.6514 0,-2.1399 -0.80727,-3.2163 -0.80728,-1.0763 -1.83239,-1.0763 -1.1148,0 -2.46026,1.1276 -1.33264,1.1276 -2.409,3.0369 z" />
        <path
           id="path4629"
           style="font-style:normal;font-variant:normal;font-weight:normal;font-stretch:normal;font-family:Monaco;-inkscape-font-specification:Monaco;letter-spacing:-0.77999949px;fill:#f44336;fill-opacity:1;stroke-width:0.65606928px"
           d="m 183.20155,1114.9923 v -12.3269 h -3.9723 v -1.9862 h 6.35567 v 12.327 h 3.98511 v 1.9861 z m -0.39723,-19.477 q 0,-0.8073 0.55099,-1.2045 0.551,-0.3973 1.03792,-0.3973 0.49974,0 1.05074,0.3973 0.551,0.3972 0.551,1.2045 0,0.7944 -0.551,1.1916 -0.551,0.3973 -1.05074,0.3973 -0.48692,0 -1.03792,-0.3973 -0.55099,-0.3972 -0.55099,-1.1916 z" />
      </g>
      <g
         id="text4547-0"
         style="font-style:normal;font-weight:normal;font-size:26.24277115px;line-height:125%;font-family:sans-serif;letter-spacing:0px;word-spacing:0px;fill:#f44336;fill-opacity:1;stroke:none;stroke-width:0.65606928px;stroke-linecap:butt;stroke-linejoin:miter;stroke-opacity:1"
         aria-label=".">
        <path
           id="path4622"
           style="font-style:normal;font-variant:normal;font-weight:normal;font-stretch:normal;font-family:Hack;-inkscape-font-specification:Hack;letter-spacing:-0.77999949px;fill:#f44336;fill-opacity:1;stroke-width:0.65606928px"
           d="m 144.03115,1115.1566 q -0.87135,0 -1.4736,-0.6022 -0.60225,-0.6023 -0.60225,-1.5633 0,-0.961 0.60225,-1.5633 0.60225,-0.6022 1.4736,-0.6022 0.87134,0 1.47359,0.6022 0.60225,0.6023 0.60225,1.5633 0,0.961 -0.60225,1.5633 -0.60225,0.6022 -1.47359,0.6022 z" />
      </g>
    </g>
  </g>
</svg>
