<?xml version="1.0" encoding="UTF-8" standalone="no"?>
<!-- Created with Inkscape (http://www.inkscape.org/) -->

<svg
   xmlns:dc="http://purl.org/dc/elements/1.1/"
   xmlns:cc="http://creativecommons.org/ns#"
   xmlns:rdf="http://www.w3.org/1999/02/22-rdf-syntax-ns#"
   xmlns:svg="http://www.w3.org/2000/svg"
   xmlns="http://www.w3.org/2000/svg"
   xmlns:sodipodi="http://sodipodi.sourceforge.net/DTD/sodipodi-0.dtd"
   xmlns:inkscape="http://www.inkscape.org/namespaces/inkscape"
   width="196"
   height="36"
   id="svg3217"
   version="1.1"
   inkscape:version="0.92.1 r15371"
   sodipodi:docname="logo.svg">
  <defs
     id="defs3219" />
  <sodipodi:namedview
     id="base"
     pagecolor="#ffffff"
     bordercolor="#666666"
     borderopacity="1.0"
     inkscape:pageopacity="0.0"
     inkscape:pageshadow="2"
     inkscape:zoom="5.6"
     inkscape:cx="109.1858"
     inkscape:cy="-3.3497947"
     inkscape:document-units="px"
     inkscape:current-layer="layer1"
     showgrid="false"
     inkscape:window-width="1920"
     inkscape:window-height="1171"
     inkscape:window-x="1920"
     inkscape:window-y="0"
     inkscape:window-maximized="1"
     showguides="true"
     inkscape:guide-bbox="true">
    <sodipodi:guide
       position="88.571429,77.142858"
       orientation="0,1"
       id="guide4549"
       inkscape:locked="false" />
    <sodipodi:guide
       position="86.607143,7.1428572"
       orientation="0,1"
       id="guide4946"
       inkscape:locked="false" />
  </sodipodi:namedview>
  <metadata
     id="metadata3222">
    <rdf:RDF>
      <cc:Work
         rdf:about="">
        <dc:format>image/svg+xml</dc:format>
        <dc:type
           rdf:resource="http://purl.org/dc/dcmitype/StillImage" />
        <dc:title></dc:title>
      </cc:Work>
    </rdf:RDF>
  </metadata>
  <g
     inkscape:label="Layer 1"
     inkscape:groupmode="layer"
     id="layer1"
     transform="translate(0,-1086.5196)">
    <g
       id="g4971"
       transform="translate(3.336351,0.05128125)">
      <g
         id="g4926">
        <g
           id="text2985-5-2-3-1-9-3-6"
           style="font-style:normal;font-variant:normal;font-weight:normal;font-stretch:normal;font-size:16px;line-height:125%;font-family:Raleway;-inkscape-font-specification:Raleway;letter-spacing:0px;word-spacing:0px;fill:#ffffff;fill-opacity:1;stroke:none"
           transform="matrix(2.0952077,0,0,2.0952077,4771.8518,2862.1393)">
          <path
             inkscape:connector-curvature="0"
             id="path2990-7"
             style="font-family:'Varela Round';-inkscape-font-specification:'Varela Round';letter-spacing:-0.5px;fill:#ffffff;stroke-width:1.06666672"
             d="m -2253.477,-835.22322 c 1.2629,0 1.8944,-0.40391 1.8944,-1.21173 0,-0.25031 -0.1252,-0.43804 -0.3755,-0.5632 -0.2503,-0.13654 -0.5689,-0.256 -0.9557,-0.3584 -0.3755,-0.1024 -0.7851,-0.2048 -1.2288,-0.3072 -0.4437,-0.11378 -0.8591,-0.26738 -1.2459,-0.4608 -0.3754,-0.19342 -0.6884,-0.44373 -0.9386,-0.75094 -0.2504,-0.31857 -0.3755,-0.70542 -0.3755,-1.16053 0,-0.45511 0.068,-0.84764 0.2048,-1.1776 0.1365,-0.32994 0.3413,-0.61439 0.6144,-0.85333 0.603,-0.51199 1.4392,-0.76799 2.5088,-0.768 0.8533,1e-5 1.6782,0.14222 2.4747,0.42666 0.1592,0.0569 0.2787,0.14793 0.3584,0.27307 0.091,0.12516 0.1365,0.26739 0.1365,0.42667 0,0.14792 -0.068,0.29014 -0.2048,0.42666 -0.1252,0.13655 -0.2504,0.20481 -0.3755,0.2048 -0.1252,10e-6 -0.2788,-0.0285 -0.4608,-0.0853 -0.5461,-0.17066 -1.1434,-0.25599 -1.792,-0.256 -0.6485,1e-5 -1.1434,0.11378 -1.4848,0.34133 -0.33,0.22756 -0.4949,0.50063 -0.4949,0.8192 0,0.31858 0.1251,0.55752 0.3755,0.7168 0.2616,0.14792 0.5802,0.27308 0.9557,0.37547 0.3755,0.1024 0.7851,0.20481 1.2288,0.3072 0.455,0.1024 0.8704,0.24463 1.2459,0.42667 0.8874,0.45511 1.3312,1.16053 1.3312,2.11626 0,0.72818 -0.2731,1.31983 -0.8192,1.77494 -0.5917,0.50061 -1.4166,0.75093 -2.4747,0.75093 -1.1492,0 -2.1845,-0.256 -3.1061,-0.768 -0.1935,-0.13653 -0.2902,-0.3072 -0.2902,-0.512 0,-0.2048 0.063,-0.37547 0.1878,-0.512 0.1251,-0.14791 0.2616,-0.22187 0.4096,-0.22187 0.1478,0 0.3242,0.0456 0.529,0.13654 0.6599,0.29582 1.3824,0.44373 2.1675,0.44373" />
          <path
             inkscape:connector-curvature="0"
             id="path2992-5"
             style="font-family:'Varela Round';-inkscape-font-specification:'Varela Round';letter-spacing:-0.5px;fill:#ffffff;stroke-width:1.06666672"
             d="m -2247.517,-837.76615 c 0.091,0.77369 0.3811,1.38809 0.8704,1.8432 0.4892,0.45511 1.1718,0.68266 2.048,0.68266 0.876,0 1.6099,-0.1479 2.2016,-0.44373 0.2048,-0.1024 0.3811,-0.1536 0.5291,-0.1536 0.1478,0 0.2901,0.0626 0.4266,0.18773 0.1366,0.12516 0.2048,0.26738 0.2048,0.42667 0,0.29583 -0.1252,0.512 -0.3754,0.64853 -0.239,0.12516 -0.4552,0.23325 -0.6486,0.32427 -0.1935,0.091 -0.4039,0.17067 -0.6314,0.23893 -0.512,0.14792 -1.1037,0.22187 -1.775,0.22187 -1.3994,0 -2.4861,-0.39253 -3.2597,-1.1776 -0.7738,-0.78507 -1.1605,-1.90009 -1.1605,-3.34507 0,-1.25155 0.3242,-2.29262 0.9728,-3.1232 0.7281,-0.93297 1.7635,-1.39945 3.1061,-1.39946 1.2742,1e-5 2.2812,0.43236 3.0208,1.29706 0.694,0.80783 1.0411,1.80908 1.0411,3.00374 0,0.21618 -0.074,0.39822 -0.2219,0.54613 -0.1365,0.14791 -0.3243,0.22188 -0.5632,0.22187 h -5.7856 m 2.5088,-3.75467 c -1.0127,10e-6 -1.7522,0.44943 -2.2187,1.34827 -0.1706,0.31858 -0.2674,0.69974 -0.2901,1.14346 h 5.0347 c -0.046,-0.80782 -0.3414,-1.44497 -0.8875,-1.91146 -0.4552,-0.38684 -1.0013,-0.58026 -1.6384,-0.58027" />
          <path
             inkscape:connector-curvature="0"
             id="path2994-3"
             style="font-family:'Varela Round';-inkscape-font-specification:'Varela Round';letter-spacing:-0.5px;fill:#ffffff;stroke-width:1.06666672"
             d="m -2239.2386,-845.71922 c 0,-0.22754 0.074,-0.41528 0.2219,-0.5632 0.1478,-0.14789 0.3299,-0.22186 0.5461,-0.22187 0.2275,10e-6 0.4152,0.0739 0.5632,0.22187 0.1478,0.14792 0.2219,0.33566 0.2219,0.5632 v 11.07627 c 0,0.21618 -0.074,0.39822 -0.2219,0.54613 -0.148,0.14791 -0.3357,0.22187 -0.5632,0.22187 -0.2162,0 -0.3983,-0.0739 -0.5461,-0.22187 -0.148,-0.14791 -0.2219,-0.32995 -0.2219,-0.54613 v -11.07627" />
          <path
             inkscape:connector-curvature="0"
             id="path2996-5"
             style="font-family:'Varela Round';-inkscape-font-specification:'Varela Round';letter-spacing:-0.5px;fill:#ffffff;stroke-width:1.06666672"
             d="m -2234.317,-837.76615 c 0.091,0.77369 0.3811,1.38809 0.8704,1.8432 0.4892,0.45511 1.1718,0.68266 2.048,0.68266 0.876,0 1.6099,-0.1479 2.2016,-0.44373 0.2048,-0.1024 0.3811,-0.1536 0.5291,-0.1536 0.1478,0 0.2901,0.0626 0.4266,0.18773 0.1366,0.12516 0.2048,0.26738 0.2048,0.42667 0,0.29583 -0.1252,0.512 -0.3754,0.64853 -0.239,0.12516 -0.4552,0.23325 -0.6486,0.32427 -0.1935,0.091 -0.4039,0.17067 -0.6314,0.23893 -0.512,0.14792 -1.1037,0.22187 -1.775,0.22187 -1.3994,0 -2.4861,-0.39253 -3.2597,-1.1776 -0.7738,-0.78507 -1.1605,-1.90009 -1.1605,-3.34507 0,-1.25155 0.3242,-2.29262 0.9728,-3.1232 0.7281,-0.93297 1.7635,-1.39945 3.1061,-1.39946 1.2742,1e-5 2.2812,0.43236 3.0208,1.29706 0.694,0.80783 1.0411,1.80908 1.0411,3.00374 0,0.21618 -0.074,0.39822 -0.2219,0.54613 -0.1365,0.14791 -0.3243,0.22188 -0.5632,0.22187 h -5.7856 m 2.5088,-3.75467 c -1.0127,10e-6 -1.7522,0.44943 -2.2187,1.34827 -0.1706,0.31858 -0.2674,0.69974 -0.2901,1.14346 h 5.0347 c -0.046,-0.80782 -0.3414,-1.44497 -0.8875,-1.91146 -0.4552,-0.38684 -1.0013,-0.58026 -1.6384,-0.58027" />
          <path
             inkscape:connector-curvature="0"
             id="path2998-6"
             style="font-family:'Varela Round';-inkscape-font-specification:'Varela Round';letter-spacing:-0.5px;fill:#ffffff;stroke-width:1.06666672"
             d="m -2222.045,-835.24029 c 0.6371,0 1.2459,-0.15928 1.8261,-0.47786 0.2048,-0.11378 0.3868,-0.17067 0.5462,-0.17067 0.1592,0 0.3014,0.0739 0.4266,0.22187 0.1251,0.14791 0.1878,0.32426 0.1878,0.52906 0,0.2048 -0.1309,0.39254 -0.3926,0.5632 -0.8079,0.52338 -1.7181,0.78507 -2.7306,0.78507 -1.263,0 -2.3269,-0.39822 -3.1915,-1.19467 -0.9103,-0.84195 -1.3653,-1.95128 -1.3653,-3.328 0,-1.3767 0.455,-2.48604 1.3653,-3.328 0.8646,-0.79644 1.9285,-1.19465 3.1915,-1.19466 0.6826,1e-5 1.2401,0.091 1.6725,0.27306 0.4437,0.17068 0.7964,0.34135 1.0581,0.512 0.2617,0.17068 0.3926,0.35841 0.3926,0.5632 0,0.20481 -0.063,0.38116 -0.1878,0.52907 -0.1252,0.14791 -0.2503,0.22188 -0.3754,0.22187 -0.1935,1e-5 -0.3926,-0.0569 -0.5974,-0.17067 -0.5802,-0.31857 -1.189,-0.47786 -1.8261,-0.47787 -1.0013,10e-6 -1.7749,0.28445 -2.3211,0.85334 -0.5461,0.55751 -0.8192,1.29707 -0.8192,2.21866 0,0.9216 0.2731,1.66685 0.8192,2.23574 0.5462,0.55751 1.3198,0.83626 2.3211,0.83626" />
          <path
             inkscape:connector-curvature="0"
             id="path3000-2"
             style="font-family:'Varela Round';-inkscape-font-specification:'Varela Round';letter-spacing:-0.5px;fill:#ffffff;stroke-width:1.06666672"
             d="m -2214.4007,-835.15495 c 0.3072,0 0.5233,-0.0227 0.6485,-0.0683 0.1365,-0.0569 0.2787,-0.0853 0.4267,-0.0853 0.1592,0 0.3014,0.0568 0.4266,0.17066 0.1251,0.11378 0.1878,0.28445 0.1878,0.512 0,0.22756 -0.1139,0.39254 -0.3414,0.49494 -0.4893,0.22755 -0.9103,0.34133 -1.2629,0.34133 -0.3413,0 -0.6543,-0.0171 -0.9387,-0.0512 -0.2845,-0.0341 -0.5575,-0.13085 -0.8192,-0.29013 -0.6258,-0.36409 -0.9386,-1.00124 -0.9386,-1.91147 v -5.29067 h -1.2118 c -0.2162,10e-6 -0.3242,-0.10807 -0.3242,-0.32426 0,-0.1024 0.051,-0.19911 0.1536,-0.29014 l 2.321,-2.26986 c 0.1024,-0.1024 0.1991,-0.15359 0.2902,-0.1536 0.091,10e-6 0.1649,0.0341 0.2218,0.1024 0.068,0.0683 0.1024,0.14792 0.1024,0.23893 v 1.36533 h 1.9286 c 0.1933,1e-5 0.3526,0.0626 0.4778,0.18774 0.1251,0.12516 0.1878,0.28445 0.1878,0.47786 0,0.19343 -0.063,0.35273 -0.1878,0.47787 -0.1252,0.12516 -0.2845,0.18774 -0.4778,0.18773 h -1.9286 v 5.15414 c 0,0.43236 0.1308,0.72818 0.3926,0.88746 0.1478,0.091 0.3697,0.13654 0.6656,0.13654" />
        </g>
        <g
           transform="matrix(2.0952077,0,0,2.0952077,3050.7569,1729.4642)"
           id="g5772-8-9"
           style="fill:#2ecc71;fill-opacity:1">
          <g
             id="text2985-0-6-2-2-3-1"
             style="font-style:normal;font-variant:normal;font-weight:normal;font-stretch:normal;font-size:16px;line-height:125%;font-family:Raleway;-inkscape-font-specification:Raleway;letter-spacing:0px;word-spacing:0px;fill:#2ecc71;stroke:none">
            <path
               inkscape:connector-curvature="0"
               id="path3003-2"
               style="font-family:'Varela Round';-inkscape-font-specification:'Varela Round';letter-spacing:-0.5px;fill:#2ecc71;stroke-width:1.06666672"
               d="m -1448.3648,-294.48396 c -0.842,0.86472 -1.8148,1.29707 -2.9184,1.29707 -1.0923,0 -2.0367,-0.38684 -2.8331,-1.16053 -0.8647,-0.85333 -1.297,-1.97404 -1.297,-3.36214 0,-1.36532 0.4323,-2.48034 1.297,-3.34506 0.7851,-0.78506 1.7294,-1.17759 2.8331,-1.1776 1.1036,10e-6 2.0764,0.43237 2.9184,1.29706 v -4.18133 c 0,-0.22754 0.074,-0.41528 0.2219,-0.5632 0.1478,-0.14789 0.3299,-0.22185 0.5461,-0.22187 0.2275,2e-5 0.4153,0.0739 0.5632,0.22187 0.1478,0.14792 0.2219,0.33566 0.2219,0.5632 v 11.07627 c 0,0.21618 -0.074,0.39823 -0.2219,0.54613 -0.1479,0.14791 -0.3357,0.22187 -0.5632,0.22187 -0.2162,0 -0.3983,-0.0739 -0.5461,-0.22187 -0.148,-0.1479 -0.2219,-0.32995 -0.2219,-0.54613 v -0.44374 m 0,-5.0176 c -0.7738,-0.85332 -1.6725,-1.27999 -2.6965,-1.28 -1.2971,1e-5 -2.1562,0.58028 -2.5771,1.7408 -0.1479,0.38686 -0.2219,0.83059 -0.2219,1.3312 0,0.9785 0.2673,1.7465 0.8022,2.304 0.4891,0.51201 1.1547,0.76801 1.9968,0.768 1.024,1e-5 1.9227,-0.42665 2.6965,-1.28 v -3.584" />
          </g>
          <path
             id="path3122-8-7-2-0-9-72-7"
             d="m -1440.7991,-302.23037 c -2.4175,0 -4.3668,2.03677 -4.3668,4.53334 0,2.49656 1.9493,4.5 4.3668,4.5 2.4174,0 4.4,-2.00344 4.4,-4.5 0,-0.8393 -0.2475,-1.62649 -0.6334,-2.3 l -3.9666,5.03333 -0.3001,0.36667 c -0.1716,0.20697 -0.496,0.20697 -0.6667,0 l -0.2999,-0.43334 -1.7333,-2.23333 c -0.1481,-0.18255 -0.1257,-0.45396 0.067,-0.6 l 0.7333,-0.53333 c 0.1957,-0.13392 0.4661,-0.0949 0.6,0.0999 l 1.0667,1.53334 3.9,-4.03334 c -0.7978,-0.86912 -1.9156,-1.43333 -3.1667,-1.43333 z"
             style="fill:#2ecc71;fill-opacity:1;fill-rule:nonzero;stroke:none;stroke-width:1.06666672"
             inkscape:connector-curvature="0" />
        </g>
      </g>
      <g
         id="g4952">
        <text
           xml:space="preserve"
           style="font-style:normal;font-weight:normal;font-size:26.24277115px;line-height:125%;font-family:sans-serif;letter-spacing:0px;word-spacing:0px;fill:#f44336;fill-opacity:1;stroke:none;stroke-width:0.65606928px;stroke-linecap:butt;stroke-linejoin:miter;stroke-opacity:1"
           x="143.95749"
           y="1114.941"
           id="text4547"><tspan
             sodipodi:role="line"
             id="tspan4545"
             x="143.95749"
             y="1114.941"
             style="font-style:normal;font-variant:normal;font-weight:normal;font-stretch:normal;font-family:Monaco;-inkscape-font-specification:Monaco;letter-spacing:-0.77999949px;fill:#f44336;fill-opacity:1;stroke-width:0.65606928px">api</tspan></text>
        <text
           xml:space="preserve"
           style="font-style:normal;font-weight:normal;font-size:26.24277115px;line-height:125%;font-family:sans-serif;letter-spacing:0px;word-spacing:0px;fill:#f44336;fill-opacity:1;stroke:none;stroke-width:0.65606928px;stroke-linecap:butt;stroke-linejoin:miter;stroke-opacity:1"
           x="132.8399"
           y="1114.7594"
           id="text4547-0"><tspan
             sodipodi:role="line"
             id="tspan4545-9"
             x="132.8399"
             y="1114.7594"
             style="font-style:normal;font-variant:normal;font-weight:normal;font-stretch:normal;font-family:Hack;-inkscape-font-specification:Hack;letter-spacing:-0.77999949px;fill:#f44336;fill-opacity:1;stroke-width:0.65606928px">.</tspan></text>
      </g>
    </g>
  </g>
</svg>
